<?xml version="1.0" encoding="UTF-8"?>
<svg id="b" data-name="Layer 2" xmlns="http://www.w3.org/2000/svg" width="108.6mm" height="85.9mm" viewBox="0 0 307.8 243.4">
  <g id="c" data-name="Layer 1">
    <g>
      <path d="M124,206c-47.1,0-84.3-36.9-84.3-84.3S76.9,37.4,124,37.4s84.5,36.9,84.5,84.3-37.1,84.3-84.5,84.3m0,37.4c70,0,124.2-53.1,124.2-121.7S194,0,124,0,0,53.1,0,121.7s54.2,121.7,124,121.7" fill="#1d1d1b"/>
      <path d="M287.8,43.2c11.1,0,20.1-9,20.1-20.1s-9-20.1-20.1-20.1-20.1,9-20.1,20.1,9,20.1,20.1,20.1" fill="#1d1d1b"/>
    </g>
  </g>
</svg>